<svg width="411" height="469" viewBox="0 0 411 469" fill="none" xmlns="http://www.w3.org/2000/svg">
<path d="M234.087 372.237L219.4 371.439L221.423 415.988L231.375 416.53L234.087 372.237Z" fill="#FFB6B6"/>
<path d="M220.119 401.904L225.224 404.193V407.248C225.224 407.248 226.446 403.709 233.048 402.924L233.843 405.885C233.843 405.885 236.41 408.785 235.982 414.043L234.332 428.122L229.351 428.02L228.526 418.226C228.526 418.226 227.149 416.006 220.853 426.582C220.853 426.582 218.532 430.077 207.745 426.527C206.263 426.039 205.23 424.674 205.247 423.129C205.255 422.277 205.591 421.488 206.671 421.203C209.422 420.478 212.112 421.385 213.884 419.209C215.657 417.034 220.119 401.904 220.119 401.904L220.119 401.904H220.119Z" fill="#2F2E41"/>
<path d="M197.319 413.114L182.632 412.316L184.654 456.866L194.607 457.407L197.319 413.114Z" fill="#FFB6B6"/>
<path d="M183.351 442.782L188.455 445.07V448.126C188.455 448.126 189.678 444.587 196.28 443.801L197.074 446.762C197.074 446.762 199.642 449.663 199.214 454.92L197.563 469L192.583 468.897L191.758 459.104C191.758 459.104 190.381 456.884 184.085 467.459C184.085 467.459 181.764 470.955 170.977 467.405C169.494 466.917 168.462 465.551 168.478 464.007C168.487 463.154 168.823 462.366 169.903 462.081C172.654 461.356 175.344 462.262 177.116 460.087C178.889 457.911 183.351 442.781 183.351 442.781L183.351 442.782H183.351Z" fill="#2F2E41"/>
<path d="M381.627 279.991C380.975 278.905 378.156 280.068 377.638 279.082C377.122 278.1 379.741 276.603 381.237 273.184C381.507 272.567 383.208 268.682 381.949 267.483C379.562 265.211 368.643 274.589 364.822 271.52C363.983 270.846 363.397 269.502 360.859 267.319C359.849 266.45 359.238 266.058 358.648 266.204C357.809 266.411 357.743 267.521 356.844 269.702C355.495 272.973 354.698 272.775 353.912 275.385C353.329 277.323 353.462 278.449 352.776 278.669C351.805 278.979 350.911 276.924 349.68 277.108C348.424 277.296 347.665 279.689 347.425 281.48C346.975 284.842 348.224 287.06 348.916 289.393C349.668 291.928 350.115 295.783 348.378 301.24L331.184 349.13C334.98 339.303 345.97 312.365 350.589 302.355C351.922 299.465 353.394 296.534 356.417 295.377C359.327 294.263 363.324 294.928 368.419 293.715C369.014 293.573 370.665 293.158 370.873 292.198C371.045 291.404 370.074 290.961 370.223 290.217C370.423 289.22 372.333 289.208 374.68 288.057C376.335 287.246 377.367 286.281 378.253 285.451C378.521 285.201 382.494 281.437 381.627 279.991Z" fill="#3EEE3B"/>
<path d="M313.981 305.202C313.254 305.205 313.018 306.908 312.379 306.875C311.742 306.842 311.755 305.14 310.489 303.427C310.261 303.118 308.823 301.172 307.864 301.437C306.047 301.939 307.553 309.943 304.926 310.912C304.35 311.124 303.513 311.021 301.697 311.623C300.975 311.862 300.604 312.045 300.506 312.374C300.367 312.84 300.898 313.193 301.722 314.258C302.957 315.856 302.629 316.186 303.698 317.32C304.491 318.162 305.089 318.423 305 318.819C304.874 319.38 303.596 319.221 303.332 319.871C303.063 320.534 304.032 321.593 304.852 322.226C306.391 323.415 307.853 323.449 309.211 323.786C310.686 324.153 312.729 325.048 314.937 327.466L333.753 349.626C329.969 344.949 319.766 331.844 316.129 326.714C315.079 325.234 314.048 323.674 314.346 321.873C314.633 320.14 316.116 318.393 316.984 315.57C317.085 315.241 317.355 314.32 316.939 313.942C316.594 313.63 316.094 313.973 315.768 313.686C315.33 313.301 315.875 312.371 315.981 310.9C316.056 309.863 315.875 309.084 315.719 308.415C315.672 308.213 314.949 305.198 313.981 305.202Z" fill="#3EEE3B"/>
<path d="M328.491 308.422L328.053 304.555L328.253 304.262C329.179 302.906 329.652 301.582 329.657 300.326C329.658 300.126 329.649 299.926 329.639 299.723C329.601 298.916 329.554 297.913 330.083 296.745C330.38 296.093 331.213 294.584 332.465 294.771C332.802 294.818 333.057 294.971 333.251 295.15C333.279 295.105 333.308 295.06 333.339 295.012C333.729 294.424 334.038 294.172 334.336 293.929C334.564 293.742 334.8 293.55 335.171 293.094C335.333 292.894 335.46 292.719 335.566 292.571C335.89 292.125 336.313 291.593 337.059 291.602C337.856 291.64 338.274 292.291 338.551 292.723C339.045 293.492 339.268 294.046 339.417 294.414C339.47 294.549 339.532 294.7 339.563 294.747C339.82 295.12 341.908 294.771 342.695 294.644C344.462 294.353 345.991 294.101 346.621 295.202C347.072 295.99 346.737 297.032 345.594 298.382C345.238 298.802 344.859 299.121 344.523 299.372C344.802 299.536 345.051 299.788 345.152 300.184C345.39 301.121 344.575 302.06 342.731 302.979C342.272 303.209 341.656 303.515 340.792 303.663C340.385 303.732 340.018 303.748 339.705 303.758C339.698 303.937 339.656 304.131 339.545 304.331C339.221 304.919 338.547 305.199 337.531 305.132C336.412 305.074 335.492 304.863 334.68 304.678C333.97 304.518 333.359 304.381 332.88 304.413C331.99 304.484 331.304 305.188 330.5 306.101L328.491 308.422Z" fill="#3EEE3B"/>
<path d="M330.524 285.398L326.851 286.798L326.513 286.681C324.952 286.139 323.537 286.023 322.306 286.336C322.11 286.386 321.917 286.446 321.72 286.506C320.941 286.747 319.971 287.047 318.694 286.837C317.981 286.719 316.293 286.305 316.158 285.06C316.118 284.726 316.204 284.444 316.33 284.213C316.279 284.197 316.227 284.181 316.172 284.163C315.498 283.939 315.173 283.708 314.86 283.485C314.619 283.314 314.371 283.137 313.831 282.899C313.595 282.794 313.391 282.717 313.219 282.653C312.701 282.456 312.072 282.187 311.892 281.471C311.727 280.699 312.259 280.135 312.61 279.761C313.238 279.093 313.724 278.739 314.046 278.503C314.164 278.418 314.296 278.321 314.334 278.279C314.634 277.939 313.763 276.031 313.439 275.311C312.706 273.695 312.072 272.297 312.99 271.415C313.646 270.783 314.751 270.84 316.362 271.59C316.863 271.824 317.271 272.105 317.602 272.363C317.692 272.055 317.875 271.753 318.237 271.556C319.094 271.09 320.219 271.631 321.586 273.162C321.927 273.542 322.383 274.054 322.747 274.843C322.917 275.214 323.027 275.561 323.115 275.858C323.292 275.819 323.493 275.81 323.717 275.865C324.374 276.026 324.82 276.6 325.012 277.588C325.239 278.672 325.266 279.606 325.291 280.43C325.314 281.149 325.335 281.768 325.488 282.218C325.783 283.051 326.646 283.528 327.743 284.066L330.524 285.398L330.524 285.398V285.398Z" fill="#3EEE3B"/>
<path d="M328.491 274.006L328.053 270.139L328.253 269.846C329.179 268.49 329.652 267.166 329.657 265.91C329.658 265.71 329.649 265.51 329.639 265.306C329.601 264.5 329.554 263.497 330.083 262.328C330.38 261.677 331.213 260.168 332.465 260.355C332.802 260.401 333.057 260.554 333.251 260.734C333.279 260.689 333.308 260.644 333.339 260.595C333.729 260.007 334.038 259.755 334.336 259.513C334.564 259.326 334.8 259.133 335.171 258.678C335.333 258.478 335.46 258.303 335.566 258.155C335.89 257.709 336.313 257.177 337.059 257.186C337.856 257.223 338.274 257.875 338.551 258.306C339.045 259.076 339.268 259.63 339.417 259.998C339.47 260.132 339.532 260.284 339.563 260.33C339.82 260.704 341.908 260.355 342.695 260.228C344.462 259.936 345.991 259.684 346.621 260.786C347.072 261.574 346.737 262.616 345.594 263.966C345.238 264.386 344.859 264.705 344.523 264.955C344.802 265.12 345.051 265.372 345.152 265.768C345.39 266.705 344.575 267.644 342.731 268.563C342.272 268.793 341.656 269.099 340.792 269.246C340.385 269.315 340.018 269.332 339.705 269.342C339.698 269.521 339.656 269.715 339.545 269.915C339.221 270.503 338.547 270.783 337.531 270.716C336.412 270.658 335.492 270.447 334.68 270.262C333.97 270.101 333.359 269.965 332.88 269.997C331.99 270.068 331.304 270.772 330.5 271.685L328.491 274.006Z" fill="#3EEE3B"/>
<path d="M332.493 349.067L331.673 348.559L331.475 347.624L331.673 348.559L330.718 348.668C330.703 348.58 330.651 348.378 330.572 348.063C330.145 346.334 328.84 341.072 327.752 332.785C326.993 327.001 326.563 321.054 326.475 315.107C326.386 309.15 326.671 304.641 326.9 301.017C327.072 298.283 327.282 295.68 327.488 293.145C328.036 286.37 328.552 279.971 328.168 272.887C328.083 271.306 327.904 268.014 325.959 264.511C324.83 262.479 323.276 260.676 321.338 259.152L322.543 257.655C324.682 259.339 326.402 261.337 327.655 263.592C329.812 267.476 330.007 271.063 330.1 272.786C330.491 279.996 329.969 286.456 329.415 293.296C329.211 295.822 329.002 298.414 328.83 301.136C328.603 304.727 328.321 309.197 328.409 315.077C328.496 320.953 328.921 326.827 329.669 332.539C330.744 340.721 332.03 345.904 332.452 347.607C332.676 348.517 332.724 348.707 332.493 349.067V349.067H332.493Z" fill="#3EEE3B"/>
<path d="M317.791 262.19C317.712 262.19 317.631 262.188 317.55 262.183C315.903 262.095 314.378 261.12 313.016 259.287C312.378 258.424 312.051 257.44 311.399 255.478C311.298 255.175 310.807 253.64 310.509 251.528C310.313 250.149 310.338 249.572 310.614 249.062C310.921 248.494 311.418 248.098 311.977 247.831C311.953 247.648 311.972 247.46 312.053 247.267C312.382 246.47 313.259 246.575 313.733 246.625C313.973 246.655 314.272 246.694 314.595 246.677C315.103 246.653 315.376 246.504 315.79 246.28C316.185 246.065 316.677 245.798 317.407 245.65C318.847 245.354 320.053 245.757 320.45 245.889C322.542 246.578 323.573 248.186 324.767 250.048C325.005 250.421 325.822 251.78 326.361 253.644C326.75 254.988 326.696 255.586 326.578 256.03C326.34 256.943 325.779 257.466 324.352 258.62C322.861 259.828 322.113 260.433 321.471 260.801C319.976 261.654 319.037 262.19 317.791 262.19V262.19V262.19Z" fill="#3EEE3B"/>
<path d="M112.696 344.546L121.849 344.545L126.203 309.643L112.694 309.644L112.696 344.546Z" fill="#FFB6B6"/>
<path d="M144.055 344.34C144.34 344.815 144.491 346.346 144.491 346.898C144.491 348.594 143.1 349.969 141.384 349.969H113.038C111.868 349.969 110.919 349.031 110.919 347.874V346.708C110.919 346.708 109.517 343.201 112.404 338.879C112.404 338.879 115.992 342.263 121.353 336.963L122.934 334.132L134.379 342.406L140.723 343.178C142.111 343.347 143.341 343.152 144.055 344.34H144.055V344.34Z" fill="#2F2E41"/>
<path d="M77.964 344.546L87.1171 344.545L91.4712 309.643L77.9622 309.644L77.964 344.546Z" fill="#FFB6B6"/>
<path d="M109.324 344.34C109.609 344.815 109.759 346.346 109.759 346.898C109.759 348.594 108.368 349.969 106.652 349.969H78.3064C77.1359 349.969 76.187 349.031 76.187 347.874V346.708C76.187 346.708 74.7848 343.201 77.6718 338.879C77.6718 338.879 81.2599 342.263 86.6215 336.963L88.2026 334.132L99.6475 342.406L105.991 343.178C107.379 343.347 108.61 343.152 109.323 344.34H109.324H109.324Z" fill="#2F2E41"/>
<path d="M71.2231 157.066L59.6459 183.008L74.3104 324.925L92.4481 326.069L99.7803 200.557L106.727 326.451L128.338 324.162L133.464 164.345L71.2231 157.066Z" fill="#2F2E41"/>
<path d="M116.836 53.6808L93.6058 49.4843L88.9142 54.1224L65.0486 63.9812L68.9077 137.992C68.9077 137.992 61.1895 143.074 65.0486 150.07C68.9077 157.066 68.1359 165.459 68.1359 165.459H133.464L130.653 123.495L138.371 70.0852L120.337 61.6446L116.836 53.6808H116.836L116.836 53.6808Z" fill="#FF6F91"/>
<path d="M99.9987 139.906C106.598 141.463 112.761 139.359 113.763 135.207C114.765 131.055 110.227 126.427 103.625 124.87C100.996 124.212 98.2463 124.186 95.6054 124.794L67.5576 118.544L64.8712 131.618L92.8066 136.392C94.8857 138.114 97.3519 139.319 99.9987 139.905L99.9987 139.906H99.9987Z" fill="#FFB6B6"/>
<path d="M69.6795 67.7962L65.0486 63.9812C65.0486 63.9812 55.7868 68.5592 54.2432 72.3741C52.6995 76.1891 43.4377 112.813 43.4377 112.813C43.4377 112.813 41.6206 132.884 46.3883 135.438C51.1559 137.992 81.2567 136.466 81.2567 136.466L83.5722 121.206L71.2231 116.628L69.6795 67.7962V67.7962Z" fill="#FF6F91"/>
<path d="M106.679 47.319C117.947 47.319 127.081 38.2893 127.081 27.1506C127.081 16.0119 117.947 6.98221 106.679 6.98221C95.4119 6.98221 86.2778 16.0119 86.2778 27.1506C86.2778 38.2893 95.4119 47.319 106.679 47.319Z" fill="#FFB6B6"/>
<path d="M92.0471 45.0545C89.603 45.2704 85.6132 39.0895 85.791 33.1036C85.9054 29.2527 82.5235 28.4956 82.2722 23.5294C82.1258 20.6357 86.6222 19.7334 86.931 17.4124C87.4907 13.2071 90.2351 10.3773 90.5778 10.0333C93.5355 7.06379 95.623 8.02914 99.1012 4.58755C101.195 2.51554 100.659 1.94788 102.069 1.02883C106.139 -1.62359 113.453 1.25113 117.826 5.1235C119.34 6.46349 124.981 4.99895 127.445 8.78296C130.349 13.2412 129.675 22.3333 128.43 23.5332C127.673 24.2622 125.946 22.4811 121.264 21.3381C116.93 20.2798 121.018 25.5133 116.007 24.6351C110.082 23.5965 108.922 21.8144 106.702 22.8833C104.357 24.0132 102.523 27.512 103.056 30.2624C103.32 31.6273 104.085 32.3883 103.654 33.0823C102.866 34.3494 101.961 33.1067 100.95 34.3783C99.7748 35.8574 102.696 39.6518 102.146 40.0182C102.035 40.092 101.7 40.0824 98.5463 37.0843C97.2872 35.8872 96.918 35.1521 96.6717 35.2649C96.2729 35.4476 93.6589 37.8548 94.657 39.7559C96.2103 42.7142 94.2224 42.8064 94.657 44.798C95.1054 46.8526 93.6003 44.9173 92.0471 45.0545Z" fill="#2F2E41"/>
<path d="M87.8172 106.327L84.7299 108.616L100.938 130.743L104.025 129.98L87.8172 106.327Z" fill="#3F3D56"/>
<path d="M129.495 126.582V165.201C129.495 168.616 126.685 171.394 123.23 171.394H84.1651C80.7104 171.394 77.8999 168.616 77.8999 165.201V126.582C77.8999 123.167 80.7104 120.389 84.1651 120.389H123.23C126.685 120.389 129.495 123.167 129.495 126.582Z" fill="white"/>
<path d="M108.898 136.161H96.2862C95.9683 136.161 95.7096 135.905 95.7096 135.591C95.7096 135.277 95.9683 135.021 96.2862 135.021H108.898C109.216 135.021 109.474 135.277 109.474 135.591C109.474 135.905 109.216 136.161 108.898 136.161Z" fill="#3F3D56"/>
<path d="M108.898 148.316H96.2862C95.9683 148.316 95.7096 148.061 95.7096 147.746C95.7096 147.432 95.9683 147.176 96.2862 147.176H108.898C109.216 147.176 109.474 147.432 109.474 147.746C109.474 148.061 109.216 148.316 108.898 148.316Z" fill="#3F3D56"/>
<path d="M102.633 165.075H90.0211C89.7031 165.075 89.4444 164.82 89.4444 164.505C89.4444 164.191 89.7031 163.935 90.0211 163.935H102.633C102.951 163.935 103.209 164.191 103.209 164.505C103.209 164.82 102.951 165.075 102.633 165.075Z" fill="#3F3D56"/>
<path d="M115.665 142.243H89.5187C89.2008 142.243 88.9421 141.987 88.9421 141.673C88.9421 141.358 89.2008 141.103 89.5187 141.103H115.665C115.983 141.103 116.242 141.358 116.242 141.673C116.242 141.987 115.983 142.243 115.665 142.243Z" fill="#3F3D56"/>
<path d="M113.734 143.045C107.719 146.149 104.463 151.733 106.462 155.517C108.461 159.301 114.956 159.851 120.973 156.746C123.394 155.538 125.487 153.774 127.077 151.603L152.395 138.134L145.748 126.524L121.495 141.034C118.782 141.082 116.121 141.772 113.734 143.045V143.045Z" fill="#FFB6B6"/>
<path d="M133.74 70.8481C133.74 70.8481 140.687 66.2702 145.318 78.4781C148.971 88.1091 155.747 116.498 158.444 128.053C159.161 131.121 158.124 134.326 155.744 136.417L152.65 139.136L137.599 150.199L127.338 135.438L139.801 128.01L125.588 97.5291L133.74 70.8481L133.74 70.8481V70.8481Z" fill="#FF6F91"/>
<path d="M206.518 346.247C206.682 344.637 206.452 343.012 205.85 341.508L208.392 324.787L200.308 323.824L198.6 340.889C197.746 342.268 197.239 343.83 197.12 345.443C196.768 349.476 198.586 352.924 201.182 353.146C203.777 353.367 206.167 350.278 206.518 346.246L206.518 346.247V346.247Z" fill="#A0616A"/>
<path d="M229.914 247.463L223.243 282.113L214.968 300.29L210.041 335.339L197.379 339.127L201.349 294.684C201.349 294.684 214.138 253.389 217.566 249.184C220.995 244.979 229.914 247.463 229.914 247.463H229.914V247.463Z" fill="#3F51B5"/>
<path d="M236.339 214.379L228.306 240.286L255.942 248.661L263.975 222.754L236.339 214.379Z" fill="#2F2E41"/>
<path d="M250.487 232.466C258.271 232.466 264.581 226.228 264.581 218.534C264.581 210.839 258.271 204.601 250.487 204.601C242.704 204.601 236.394 210.839 236.394 218.534C236.394 226.228 242.704 232.466 250.487 232.466Z" fill="#FFB6B6"/>
<path d="M263.547 198.921C259.207 196.843 251 197.817 248.066 198.137C245.444 198.423 243.627 199.926 241.84 201.404C237.784 204.758 236.005 208.845 235.437 210.285C232.755 217.091 235.397 219.954 232.593 222.82C229.589 225.891 225.377 223.812 223.547 226.778C221.884 229.472 224.967 231.826 223.776 236.123C222.403 241.081 217.128 242.171 217.666 244.062C218.263 246.161 225.392 247.044 231.077 244.519C231.844 244.178 238.583 241.085 238.909 236.071C239.118 232.855 236.45 232.523 235.713 227.888C235.2 224.666 236.028 221.929 237.35 217.563C238.272 214.521 238.732 213 239.726 211.584C240.205 210.901 244.717 204.69 251.408 205.849C257.306 206.871 261.271 212.992 260.507 216.851C260.055 219.13 257.91 220.847 258.754 222.503C259.376 223.725 260.975 223.64 261.175 224.783C261.362 225.856 260.133 226.956 259.199 227.791C258.019 228.847 256.961 229.35 256.563 229.569C253.725 231.133 252.673 235.798 252.689 238.701C252.712 243.034 255.142 248.364 260.066 250.212C265.595 252.287 272.338 249.246 272.593 246.794C272.741 245.37 270.62 244.925 270.28 242.486C269.897 239.735 272.33 238.395 271.556 236.689C270.856 235.144 271.877 237.349 269.943 235.17C269.706 234.903 268.459 233.45 268.437 231.621C268.408 229.239 270.477 227.667 271.619 226.402C275.894 221.666 276.568 212.731 272.607 208.365C270.359 205.887 271.75 202.848 263.547 198.921H263.547H263.547Z" fill="#2F2E41"/>
<path d="M265.613 212.429C266.887 209.573 263.517 205.94 263.077 205.477C259.79 202.017 255.068 201.891 252.741 201.829C250.704 201.775 246.338 201.659 243.034 204.556C241.247 206.123 239.58 208.739 240.328 209.92C240.786 210.642 242.112 210.678 244.763 210.748C247.147 210.812 248.009 210.501 249.343 211.106C250.328 211.552 250.571 212.045 251.433 212.77C253.766 214.731 256.633 215.03 257.482 215.118C259.485 215.327 264.359 215.24 265.613 212.429H265.613H265.613Z" fill="#2F2E41"/>
<path d="M231.976 244.396L220.025 248.032L220.944 258.938L217.267 326.191L278.863 328.009L279.649 321.75L273.347 299.209L276.105 254.393L258.637 245.305L254.041 236.217L237.492 235.308L231.976 244.396Z" fill="#3F51B5"/>
<path d="M259.097 314.831L216.807 327.555C216.807 327.555 191.265 334.78 177.475 342.05C163.685 349.321 165.324 355.919 165.324 355.919L182.791 433.17L199.34 434.079L197.096 363.018L214.968 360.609L217.727 386.629L232.436 390.264L247.146 340.278C248.202 346.545 254.07 350.871 260.445 350.072C265.77 349.406 272.269 348.385 278.403 346.869C292.193 343.463 278.403 319.375 278.403 319.375L259.097 314.831V314.831Z" fill="#2F2E41"/>
<path d="M215.428 353.457C215.428 353.457 218.186 331.644 222.783 307.106C227.38 282.567 243.928 288.929 243.928 288.929L273.347 319.83L249.444 335.28L215.428 353.457V353.457Z" fill="#2F2E41"/>
<path d="M240.379 329.891C241.586 328.798 242.511 327.436 243.077 325.918L256.25 315.133L250.875 309.087L238.092 320.678C236.525 321.143 235.093 321.972 233.917 323.096C230.934 325.87 229.964 329.638 231.748 331.514C233.533 333.39 237.397 332.663 240.379 329.891H240.379V329.891Z" fill="#FFB6B6"/>
<path d="M251.319 269.836L261.84 290.098L243.777 313.125L252.869 322.534L275.47 303.696L286.072 293.825C289.917 290.245 287.916 285.525 286.011 280.655C278.403 261.21 280.242 253.939 272.887 252.121C266.904 250.643 251.319 269.836 251.319 269.836L251.319 269.836V269.836Z" fill="#3F51B5"/>
<path d="M203.122 307.973L204.842 303.212L236.833 308.653L264.007 295.051L265.383 298.791L235.801 316.134L203.122 307.973Z" fill="#E6E6E6"/>
<path d="M266.759 296.411L236.145 311.713L201.153 306.715L204.498 321.235L234.081 326.336L262.048 313.088L266.759 296.411Z" fill="#3F3D56"/>
<path d="M80.7407 131.466L82.4606 126.706L114.451 132.146L141.626 118.544L143.002 122.285L113.419 139.627L80.7407 131.466Z" fill="#E6E6E6"/>
<path d="M144.378 119.905L113.763 135.207L78.7713 130.208L82.1166 144.728L111.699 149.829L139.666 136.581L144.378 119.905Z" fill="#3F3D56"/>
</svg>
