<svg width="429" height="493" viewBox="0 0 429 493" fill="none" xmlns="http://www.w3.org/2000/svg">
<g clip-path="url(#clip0_12_175)">
<path d="M240.516 140.416C247.296 137.027 251.043 130.782 248.885 126.468C246.727 122.153 239.484 121.404 232.702 124.796C229.974 126.113 227.602 128.065 225.783 130.487L197.239 145.21L204.433 158.458L231.809 142.537C234.839 142.536 237.825 141.809 240.516 140.416V140.416Z" fill="#FFB6B6"/>
<path d="M78.7894 482.896L92.3768 482.895L98.8404 430.486L78.7867 430.487L78.7894 482.896Z" fill="#FFB6B6"/>
<path d="M125.341 482.588C125.765 483.3 125.988 485.6 125.988 486.429C125.988 488.976 123.923 491.04 121.376 491.04H79.2976C77.5601 491.04 76.1515 489.632 76.1515 487.894V486.142C76.1515 486.142 74.0699 480.877 78.3555 474.387C78.3555 474.387 83.682 479.469 91.6411 471.51L93.9881 467.258L110.978 479.683L120.395 480.842C122.455 481.096 124.282 480.803 125.341 482.588H125.341H125.341Z" fill="#2F2E41"/>
<path d="M100.126 425.269L112.192 431.515L142.028 387.945L124.219 378.726L100.126 425.269Z" fill="#FFB6B6"/>
<path d="M141.608 446.398C141.656 447.226 140.797 449.37 140.416 450.106C139.245 452.368 136.462 453.252 134.2 452.081L96.8326 432.735C95.2897 431.936 94.6863 430.038 95.4852 428.495L96.2906 426.939C96.2906 426.939 96.8629 421.306 103.652 417.514C103.652 417.514 106.046 424.475 116.774 421.066L120.813 418.37L130.187 437.215L138.017 442.574C139.73 443.746 141.487 444.326 141.607 446.398L141.608 446.398V446.398Z" fill="#2F2E41"/>
<path d="M64.9909 66.9081H100.624L99.8463 78.5265L123.083 152.594L127.44 201.973L83.8709 209.234L63.5386 117.739L67.8955 75.6219L64.9909 66.9081Z" fill="#FF6F91"/>
<path d="M67.1693 76.3481L29.4093 95.228L52.6463 173.653L48.2893 253.53C48.2893 253.53 107.834 272.41 104.929 218.674C102.025 164.939 102.025 156.225 102.025 156.225L67.1693 76.3481H67.1693Z" fill="#2F2E41"/>
<path d="M127.44 86.1311C127.44 86.1311 136.88 79.2527 141.237 89.4188C145.594 99.585 173.914 151.142 173.914 151.142L218.209 131.536L225.471 147.511C225.471 147.511 189.163 182.367 167.379 178.01C145.594 173.653 128.166 135.893 128.166 135.893L127.44 86.1311H127.44Z" fill="#2F2E41"/>
<path d="M52.6463 239.006C52.6463 239.006 51.194 262.243 54.0986 281.123C57.0032 300.003 76.6093 460.483 76.6093 460.483L101.299 459.031L103.477 270.957L138.332 326.145L107.834 408.926L128.892 418.366L173.188 327.597L142.689 224.483L133.975 198.342L68.6216 205.603L52.6463 239.006V239.006Z" fill="#2F2E41"/>
<path d="M149.951 244.816C149.951 244.816 110.739 256.434 102.025 156.225L100.054 75.4261L136.88 85.0619L132.523 157.677L149.951 244.816V244.816Z" fill="#2F2E41"/>
<path d="M83.1447 57.4681C97.5823 57.4681 109.286 45.7641 109.286 31.3265C109.286 16.889 97.5823 5.185 83.1447 5.185C68.7071 5.185 57.0032 16.889 57.0032 31.3265C57.0032 45.7641 68.7071 57.4681 83.1447 57.4681Z" fill="#FFB6B6"/>
<path d="M66.4432 56.7419C66.4432 56.7419 54.8247 43.6712 53.3724 37.8619C51.9201 32.0527 51.9201 16.0773 53.3724 14.625C54.8247 13.1727 70.8001 -1.35037 76.6093 0.101932C82.4186 1.55423 93.9338 8.81577 104.203 8.81577C107.108 8.81577 108.56 23.3388 108.56 23.3388L96.9416 24.7912C96.9416 24.7912 82.4186 17.5296 83.8709 24.7912C85.3232 32.0527 73.7047 32.0527 73.7047 32.0527L75.157 37.8619L70.8001 39.3142L67.8955 33.505C67.8955 33.505 69.3478 46.5758 73.7047 52.385C78.0616 58.1942 66.4432 56.7419 66.4432 56.7419H66.4432Z" fill="#2F2E41"/>
<path d="M54.8681 265.848C58.8538 272.295 65.411 275.465 69.5136 272.928C73.6161 270.39 73.71 263.109 69.7221 256.66C68.1644 254.062 66.0072 251.875 63.431 250.281L46.1987 223.178L33.6523 231.536L51.9723 257.368C52.2464 260.385 53.2394 263.293 54.8681 265.848V265.848Z" fill="#FFB6B6"/>
<path d="M35.2186 95.2281H27.957C27.957 95.2281 -1.0891 160.582 0.363202 173.653C0.363202 173.653 0.363202 185.271 7.62474 193.985C14.8863 202.699 45.3847 252.077 45.3847 252.077L58.4555 241.911L32.314 180.914L48.2893 117.013L35.2186 95.2281V95.2281Z" fill="#2F2E41"/>
<path d="M270.88 186.13C267.45 186.13 264.181 184.729 261.829 182.229C246.686 166.131 238.347 145.097 238.347 123C238.347 104.586 244.059 87.0063 254.867 72.1597C257.003 69.2265 260.317 67.3857 263.96 67.1099C267.66 66.8247 271.279 68.1802 273.888 70.8159L317.8 115.171C322.195 119.61 322.644 126.697 318.845 131.656L280.897 181.188C278.642 184.131 275.224 185.927 271.518 186.114C271.305 186.125 271.092 186.13 270.88 186.13V186.13Z" fill="#FF6F91"/>
<path d="M340.847 212C327.307 212 314.316 208.999 302.233 203.081C297.843 200.932 294.685 196.97 293.566 192.21C292.448 187.45 293.511 182.496 296.484 178.617L328.108 137.34C333.86 129.831 333.18 119.099 326.525 112.375L294.153 79.6773C289.474 74.9507 287.352 68.4683 288.332 61.8921C289.317 55.2817 293.264 49.667 299.16 46.4883C312.453 39.3208 327.517 35.6934 342.724 36.0195C388.552 36.9756 426.328 73.543 428.723 119.268C430.002 143.697 421.467 166.887 404.689 184.565C387.9 202.257 365.227 212 340.847 212ZM340.879 39C326.797 39 330.166 52.3584 317.847 59C312.791 61.7256 292.144 56.668 291.299 62.3345C290.46 67.9663 292.277 73.5186 296.285 77.5669L328.657 110.265C336.361 118.048 337.149 130.472 330.489 139.164L298.866 180.441C296.442 183.605 295.575 187.644 296.487 191.524C297.399 195.404 299.974 198.635 303.552 200.388C315.221 206.103 327.769 186 340.847 186C364.396 186 386.296 199.589 402.513 182.501C418.719 165.424 426.963 143.023 425.727 119.425C423.414 75.2612 386.927 39.9424 342.661 39.0186C342.068 39.0063 341.472 39 340.879 39H340.879Z" fill="#3F51B5"/>
<path d="M346.614 124.363C344.904 122.365 344.049 119.441 344.049 115.588C344.049 111.773 344.904 108.865 346.614 106.867C348.324 104.87 350.692 103.871 353.715 103.871C356.775 103.871 359.17 104.87 360.898 106.867C362.626 108.865 363.489 111.773 363.489 115.588C363.489 119.441 362.626 122.365 360.898 124.363C359.17 126.361 356.775 127.36 353.715 127.36C350.692 127.36 348.324 126.361 346.614 124.363ZM356.794 121.258C357.442 120.106 357.765 118.217 357.765 115.588C357.765 113.033 357.432 111.17 356.766 110C356.1 108.83 355.083 108.245 353.715 108.245C352.383 108.245 351.394 108.83 350.745 110C350.097 111.17 349.774 113.033 349.774 115.588C349.774 118.18 350.097 120.062 350.745 121.231C351.394 122.402 352.383 122.986 353.715 122.986C355.119 122.986 356.146 122.411 356.794 121.258V121.258ZM356.312 137.717L375.586 104.41C378.246 104.41 379.907 107.293 378.572 109.595L359.277 142.858C356.639 142.858 354.991 140.001 356.312 137.717V137.717ZM373.992 140.239C372.282 138.241 371.427 135.298 371.427 131.41C371.427 127.595 372.282 124.697 373.992 122.716C375.702 120.737 378.087 119.747 381.148 119.747C384.207 119.747 386.592 120.737 388.302 122.716C390.012 124.697 390.867 127.613 390.867 131.464C390.867 135.317 390.012 138.241 388.302 140.239C386.592 142.237 384.207 143.236 381.148 143.236C378.087 143.236 375.702 142.237 373.992 140.239ZM384.172 137.107C384.819 135.938 385.144 134.057 385.144 131.464C385.144 128.909 384.81 127.046 384.145 125.875C383.478 124.706 382.479 124.121 381.148 124.121C379.779 124.121 378.772 124.706 378.124 125.875C377.475 127.046 377.151 128.909 377.151 131.464C377.151 134.057 377.475 135.938 378.124 137.107C378.772 138.278 379.779 138.862 381.148 138.862C382.515 138.862 383.524 138.278 384.172 137.107V137.107Z" fill="#FF6F91"/>
</g>
<defs>
<clipPath id="clip0_12_175">
<rect width="428.848" height="492.888" fill="white"/>
</clipPath>
</defs>
</svg>
