<svg width="324" height="200" viewBox="0 0 324 200" fill="none" xmlns="http://www.w3.org/2000/svg">
<g clip-path="url(#clip0_11_101)">
<path d="M125.266 18.0687H85.9571C84.6085 18.0687 83.5113 17.0509 83.5113 15.7998C83.5113 14.5488 84.6085 13.5309 85.9571 13.5309H125.266C126.615 13.5309 127.712 14.5488 127.712 15.7998C127.712 17.0509 126.615 18.0687 125.266 18.0687Z" fill="#E6E7E8"/>
<path d="M155.943 25.7482H85.9571C84.6085 25.7482 83.5113 24.7303 83.5113 23.4793C83.5113 22.2282 84.6085 21.2103 85.9571 21.2103H155.943C157.291 21.2103 158.389 22.2282 158.389 23.4793C158.389 24.7303 157.291 25.7482 155.943 25.7482Z" fill="#E6E7E8"/>
<path d="M155.943 33.3585H85.9571C84.6085 33.3585 83.5113 32.3406 83.5113 31.0896C83.5113 29.8385 84.6085 28.8207 85.9571 28.8207H155.943C157.291 28.8207 158.389 29.8385 158.389 31.0896C158.389 32.3406 157.291 33.3585 155.943 33.3585Z" fill="#E6E7E8"/>
<path d="M163.356 72.8519V71.7647C149.829 71.7647 138.017 61.5137 134.876 47.2346L139.973 48.451C137.508 46.2843 135.017 42.657 133.472 39.6926C132.56 42.875 130.856 46.8744 128.878 49.4352L133.7 47.3159C136.907 62.1716 149.227 72.8519 163.356 72.8519Z" fill="#FF6F91"/>
<path d="M158.239 31.2458C158.239 32.4448 157.188 33.4202 155.896 33.4202H125.426C124.133 33.4202 123.082 32.4448 123.082 31.2458C123.082 30.0469 124.133 29.0715 125.426 29.0715H155.896C157.188 29.0715 158.239 30.0469 158.239 31.2458Z" fill="#6C63FF"/>
<path d="M21.0381 152.368C20.5743 150.87 19.78 149.592 18.8343 148.68L15.3985 134.15L7.90924 135.852L12.2009 150.408C11.9187 151.64 11.9752 153.11 12.439 154.609C13.4987 158.032 16.2827 160.305 18.6572 159.687C21.0318 159.068 22.0978 155.792 21.0382 152.368H21.0381V152.368Z" fill="#FFB6B6"/>
<path d="M20.002 57.0538C20.002 57.0538 11.9129 56.7948 7.22528 61.6872C1.85465 67.7735 -1.81642 91.6215 0.939466 93.2273L8.40613 142.415L19.0535 141.057L16.3209 82.0399L20.002 57.0538V57.0538V57.0538Z" fill="#6C63FF"/>
<path d="M74.6104 139.965L72.6724 199.998H44.8394L43.7144 176.857L38.7689 199.998H8.93781L12.6586 160.218L16.5025 151.852L19.1042 146.182L74.6104 139.965Z" fill="#2F2E41"/>
<path d="M52.5038 47.2478L33.1672 46.1606L26.7216 53.771C21.1549 54.8767 16.1268 56.3043 12.6586 58.6634C13.4884 81.4541 11.6656 111.089 19.1042 116.828L12.4989 160.078C12.4989 160.078 15.1626 157.961 19.6123 158.708C21.1495 158.967 23.0051 162.179 24.8941 162.374C39.408 163.87 62.9446 162.331 74.6104 139.965L70.0825 107.587L71.2544 60.2941C67.5908 57.6075 63.0359 55.8615 57.7774 54.8582L52.5038 47.2478V47.2478H52.5038Z" fill="#6C63FF"/>
<path d="M89.7298 34.0174C89.9396 35.902 89.6732 37.6743 89.0597 39.0953L92.2808 56.9317L83.0873 58.1053L80.8096 39.8857C79.896 38.611 79.2448 36.9266 79.035 35.042C78.5557 30.7366 80.5612 27.017 83.5146 26.7341C86.4679 26.4511 89.2505 29.7119 89.7298 34.0173V34.0174H89.7298H89.7298Z" fill="#FFB6B6"/>
<path d="M59.1645 61.6568C58.2019 62.9744 58.4701 64.4554 58.2402 66.2348C57.2646 73.7888 72.8683 96.1108 83.6651 98.6809C85.0819 99.0182 85.889 100.436 87.319 100.721H87.319C91.5552 101.566 95.4994 98.4464 95.2708 94.4323L92.338 42.9494L80.0169 46.8481L80.8056 73.577C80.727 68.0397 75.2462 62.4015 71.0947 60.0564C71.0947 60.0564 62.6856 56.8372 59.1645 61.6568L59.1645 61.6568Z" fill="#6C63FF"/>
<path d="M44.8421 44.7539C54.2489 44.7539 61.8746 37.6795 61.8746 28.9528C61.8746 20.2261 54.2489 13.1517 44.8421 13.1517C35.4353 13.1517 27.8096 20.2261 27.8096 28.9528C27.8096 37.6795 35.4353 44.7539 44.8421 44.7539Z" fill="#FFB6B6"/>
<path d="M60.7072 17.3501C60.5607 17.3827 62.9492 15.2229 63.051 15.1757C65.3948 14.0885 62.9865 24.7158 61.2931 24.4168C57.1269 23.6829 55.3281 22.2261 53.7108 25.8628C53.2596 26.8738 52.9784 28.0154 52.0994 28.7384C50.8924 29.7223 48.8884 29.6407 47.904 30.8149C47.1129 31.7608 47.3415 33.1524 47.9274 34.2178C48.5134 35.2887 49.4041 36.1965 49.9373 37.2891C50.5349 38.5177 47.986 42.4261 47.0133 44.6222V44.6277L47.0075 44.6406C46.7491 45.2166 46.1349 43.5572 45.4865 43.3916C44.7105 43.1933 43.5674 44.8931 42.3315 44.5842C42.3257 44.5842 42.3198 44.5787 42.3139 44.5787C41.1361 44.2743 39.8236 43.9482 38.5228 43.622H38.5169C34.8547 42.6979 33.9289 44.0243 33.7531 43.9862L31.4796 41.7792C30.6993 41.2522 30.7875 39.5508 30.2374 39.0939C29.7874 38.7202 28.6657 39.5837 28.3351 39.2245C26.7141 37.4633 26.3412 35.7013 25.3856 32.2228C24.5125 29.0428 22.7019 19.5244 26.4228 19.095C29.9326 18.6873 27.3661 14.1537 30.8995 14.3222C30.6885 13.496 31.0811 12.6099 31.7198 12.0011C32.3526 11.3868 33.1964 11.0063 34.0461 10.6801C38.2357 9.09284 37.5384 7.72845 41.9565 8.65253C42.396 8.08176 48.0313 6.59376 48.8283 6.78404C48.8869 6.79489 47.5993 9.11461 50.7459 8.65253C50.6287 9.32118 52.344 7.87123 52.5037 10.2833C55.8598 8.41482 57.666 12.8871 57.7774 13.5449C57.9239 14.3657 56.5879 13.9471 57.4785 14.0722C58.0059 14.1483 58.9083 15.1431 58.8204 15.6377C59.2012 15.1594 59.5821 14.6864 59.9688 14.2081C60.0392 14.2135 60.1036 14.2244 60.1739 14.2352C61.9552 14.5505 59.9131 19.9528 59.9864 18.2687C60.1212 15.1757 62.4826 16.9859 60.7072 17.3501H60.7072V17.3501Z" fill="#2F2E41"/>
<path d="M277.961 14.1105C277.331 18.909 276.644 23.7009 275.898 28.485C275.595 30.4281 275.275 32.3959 274.432 34.1969C273.857 35.4262 273.052 36.5488 272.25 37.6639C271.304 38.9816 270.341 40.3161 269.055 41.3577C267.769 42.3993 266.099 43.1307 264.397 43.0083C268.913 40.1884 271.948 35.4189 272.427 30.3886C272.653 28.0241 272.343 25.6473 272.284 23.2742C272.225 20.9011 272.439 18.4454 273.619 16.3392C274.799 14.2331 277.131 12.5472 279.688 12.607L277.961 14.1105H277.961V14.1105Z" fill="#2F2E41"/>
<path d="M232.196 116.455C228.522 119.219 224.006 119.702 222.11 117.533C220.213 115.364 221.655 111.364 225.329 108.6C226.937 107.39 228.707 106.617 230.347 106.312L246.075 94.7789L251.751 101.741L235.645 112.372C234.985 113.798 233.805 115.245 232.196 116.455H232.196L232.196 116.455L232.196 116.455Z" fill="#FFB6B6"/>
<path d="M235.167 100.798L258.601 80.1695L260.945 78.5387C260.945 78.5387 274.397 66.3803 277.881 66.1019C279.356 65.9842 280.831 66.3254 282.074 67.0745C284.082 68.2824 285.122 70.2708 285.122 72.2748C285.122 73.9494 284.395 75.6318 282.907 76.8711L261.453 94.7387L252.326 102.339L240.975 111.794L239.821 109.614L235.919 102.225L235.167 100.798V100.798L235.167 100.798H235.167Z" fill="#FF6F91"/>
<path d="M285.275 86.8374L261.811 93.5044C265.74 94.531 267.385 116.737 263.729 117.427C263.729 117.427 302.616 119.993 300.494 117.427C297.907 114.299 301.376 93.5135 303.03 93.5044L285.275 86.8374Z" fill="#FFB6B6"/>
<path d="M316.497 200L314.446 177.039C314.446 168.825 313.872 161.405 312.952 154.789C309.266 128.234 300.026 114.623 300.026 114.623H265.454C265.407 114.672 265.361 114.71 265.314 114.759L265.308 114.764C257.151 122.717 252.909 142.716 251.022 154.789C250.126 160.535 249.762 164.487 249.762 164.487L246.381 192.362L248.825 200H268.941L268.624 198.364L281.568 154.789L281.726 154.256L281.867 154.789L293.867 200H316.497V200V200Z" fill="#2F2E41"/>
<path d="M266.163 73.5916L273.468 59.9109L279.624 49.9717L284.601 45.2655H298.224L299.492 49.9717L307.102 53.8934L309.793 73.5023L300.204 116.047C288.79 107.419 265.265 105.029 265.265 105.029L261.453 94.7387L258.933 82.3419L258.629 80.8595L266.163 73.5916Z" fill="#FF6F91"/>
<path d="M265.286 98.3394C260.557 98.2149 256.793 95.8509 256.878 93.0591C256.964 90.2673 260.867 88.105 265.596 88.2296C267.666 88.284 269.551 88.7677 271.009 89.5286L291.04 90.2892L290.455 99.0019L270.771 97.3273C269.268 98.0101 267.356 98.3939 265.286 98.3394V98.3394L265.286 98.3394V98.3394Z" fill="#FFB6B6"/>
<path d="M290.903 68.6007L309.798 86.0035L276.885 89.1301L269.237 99.1106L315.111 100.522C319.25 101.889 323.658 99.2355 323.999 95.1719V95.1719C324.114 93.7997 314.69 58.9836 308.984 55.7513C302.297 51.963 290.903 68.6007 290.903 68.6007L294.635 62.8367L290.903 68.6007V68.6007Z" fill="#FF6F91"/>
<path d="M304.028 28.1896C304.165 20.2849 297.369 13.7736 288.848 13.6462C280.328 13.5187 273.309 19.8233 273.172 27.728C273.034 35.6326 279.83 42.1439 288.351 42.2714C296.872 42.3988 303.89 36.0942 304.028 28.1896Z" fill="#FFB6B6"/>
<path d="M322.471 72.5591C322.084 73.9181 319.072 74.6193 318.369 76.3643C316.131 77.5493 317.343 67.8679 316.441 67.2319C315.744 66.7481 315.556 67.9168 315.398 66.9111C314.8 63.1386 310.892 63.9812 307.997 63.3723C307.669 62.7798 307.417 62.2036 307.253 61.6437C306.96 60.6326 305.624 60.2793 304.833 61.024C304.476 60.7305 304.218 59.6922 303.966 58.6539C303.784 57.8983 303.603 57.1427 303.392 56.6644L301.376 52.4461L302.027 55.588C300.708 55.1477 299.378 55.6044 298.61 54.0931C297.626 52.1525 297.233 49.8803 297.948 47.8418C298.599 45.9936 299.694 42.2917 300.931 39.2258C299.53 40.1662 297.849 40.8512 295.897 41.1936C296.589 39.976 297.292 38.7366 297.585 37.383C297.872 36.0295 297.696 34.5237 296.77 33.4474C296.009 32.5613 294.884 32.7842 293.934 32.0721C293.196 31.5176 292.557 30.0989 292.112 29.3215C294.011 35.176 295.446 41.3948 293.032 46.9829C291.362 50.8533 287.846 54.0007 283.627 55.4304C285.872 53.941 288.063 52.3536 289.745 50.3315C291.544 48.1625 292.716 45.4228 292.358 42.7048C291.796 38.4376 283.264 24.9401 282.215 22.2874C282.79 24.8803 282.567 26.9025 281.055 28.0169C280.662 24.2552 276.244 24.5976 273.836 23.0919C273.836 23.0919 271.973 13.3235 276.344 13.2637C278.453 13.2365 280.662 8.63768 282.579 7.81684C285.637 6.50679 287.512 7.39829 290.905 7.49614C294.292 7.58854 297.544 8.94208 299.612 11.4263C300.696 12.7255 301.095 11.6927 302.724 12.5026C304.271 13.2691 305.314 12.557 307.066 12.6059C310.576 12.6929 313.98 14.4324 315.949 17.1232C317.918 19.8194 319.131 19.5694 318.351 23.7388C318.34 23.7877 318.34 23.8855 318.351 24.0323C318.779 30.599 317.683 37.1819 314.877 43.2267C314.009 45.0858 318.251 47.0046 318.245 49.3257C318.24 52.022 313.558 54.4791 313.992 55.6315C315.234 61.1817 322.213 59.9477 320.566 69.2377C320.431 69.9933 322.728 71.6513 322.471 72.5591V72.5591Z" fill="#2F2E41"/>
<path d="M279.724 55.5613C279.852 55.5232 279.981 55.4798 280.11 55.4308C279.946 55.5396 279.788 55.6428 279.624 55.7516L279.724 55.5613H279.724Z" fill="#2F2E41"/>
<path d="M301.458 9.76311C299.779 9.99452 298.074 7.41104 299.027 3.82838C301.104 6.77443 302.166 10.0909 302.333 13.7339L301.213 14.0556L301.458 9.76311V9.76311Z" fill="#6C63FF"/>
<path d="M310.034 6.41904C308.888 10.1843 303.071 12.7042 302.044 11.3939L301.926 13.6393L301.207 12.781C303.293 9.90302 306.137 7.69522 310.034 6.41904H310.034V6.41904Z" fill="#6C63FF"/>
<path d="M182.304 107.955C182.304 106.704 183.401 105.686 184.749 105.686H224.058C225.407 105.686 226.504 106.704 226.504 107.955C226.504 109.206 225.407 110.224 224.058 110.224H184.749C183.401 110.224 182.304 109.206 182.304 107.955Z" fill="#E6E7E8"/>
<path d="M182.304 123.175C182.304 121.924 183.401 120.907 184.749 120.907H224.058C225.407 120.907 226.504 121.924 226.504 123.175C226.504 124.426 225.407 125.444 224.058 125.444H184.749C183.401 125.444 182.304 124.426 182.304 123.175Z" fill="#E6E7E8"/>
<path d="M154.073 117.903C152.724 117.903 151.627 116.885 151.627 115.634C151.627 114.383 152.724 113.365 154.073 113.365H224.058C225.407 113.365 226.504 114.383 226.504 115.634C226.504 116.885 225.407 117.903 224.058 117.903H154.073Z" fill="#E6E7E8"/>
<path d="M148.87 96.1876L144.047 94.0684C146.025 96.6292 147.729 100.629 148.642 103.811C150.187 100.847 152.677 97.2193 155.142 95.0526L150.046 96.269C153.186 81.9898 164.999 71.7388 178.526 71.7388V70.6516C164.396 70.6516 152.076 81.332 148.87 96.1876Z" fill="#FF6F91"/>
<path d="M171.065 117.944H140.595C139.303 117.944 138.252 116.969 138.252 115.77C138.252 114.571 139.303 113.596 140.595 113.596H171.065C172.358 113.596 173.409 114.571 173.409 115.77C173.409 116.969 172.358 117.944 171.065 117.944Z" fill="#6C63FF"/>
<path d="M179.964 73.4753C180.776 68.8354 177.379 64.4636 172.378 63.7106C167.376 62.9576 162.664 66.1087 161.852 70.7486C161.041 75.3886 164.437 79.7604 169.439 80.5134C174.44 81.2663 179.153 78.1153 179.964 73.4753Z" fill="#FF6F91"/>
<path d="M121.102 10.4994C124.227 10.4994 126.761 8.14904 126.761 5.2497C126.761 2.35037 124.227 0 121.102 0C117.977 0 115.443 2.35037 115.443 5.2497C115.443 8.14904 117.977 10.4994 121.102 10.4994Z" fill="#E6E7E8"/>
<path d="M187.315 101.28C190.44 101.28 192.974 98.9295 192.974 96.0302C192.974 93.1308 190.44 90.7805 187.315 90.7805C184.19 90.7805 181.656 93.1308 181.656 96.0302C181.656 98.9295 184.19 101.28 187.315 101.28Z" fill="#E6E7E8"/>
</g>
<defs>
<clipPath id="clip0_11_101">
<rect width="324" height="200" fill="white"/>
</clipPath>
</defs>
</svg>
